<svg fill="#FFFFFF" height="24" width="24" xmlns="http://www.w3.org/2000/svg" style=""><rect id="backgroundrect" width="100%" height="100%" x="0" y="0" fill="none" stroke="none" style="" class=""/>
    
    
<g class="currentLayer" style=""><title>Layer 1</title><path d="M0,0 h24 v24 H0 z" fill="none" id="svg_1" class=""/><path d="M12,2 C6.480000019073486,2 2,6.480000019073486 2,12 s4.480000019073486,10 10,10 s10,-4.480000019073486 10,-10 S17.520000457763672,2 12,2 zm0,14.5 c-2.490000009536743,0 -4.5,-2.009999990463257 -4.5,-4.5 S9.510000228881836,7.5 12,7.5 s4.5,2.009999990463257 4.5,4.5 s-2.009999990463257,4.5 -4.5,4.5 zm0,-5.5 c-0.550000011920929,0 -1,0.44999998807907104 -1,1 s0.44999998807907104,1 1,1 s1,-0.44999998807907104 1,-1 s-0.44999998807907104,-1 -1,-1 z" id="svg_2" class=""/><path fill="none" fill-opacity="1" stroke="#000000" stroke-opacity="1" style="color: rgb(0, 0, 0);" stroke-width="1" stroke-dasharray="none" stroke-linejoin="miter" stroke-linecap="butt" stroke-dashoffset="" fill-rule="nonzero" opacity="1" marker-start="" marker-mid="" marker-end="" id="svg_3" d="M4.816325232386589,5.387753948569298 "/><rect fill="none" stroke="#000000" style="color: rgb(0, 0, 0);" stroke-dashoffset="" fill-rule="nonzero" id="svg_5" x="9.428779320534174" y="4.285030694586458" width="4.960385491118586" height="0.8003758819529221" class="" transform="rotate(88.9053, 11.909, 4.68522)"/></g></svg>